<svg width="42" height="42" viewBox="0 0 42 42" fill="none" xmlns="http://www.w3.org/2000/svg">
<path d="M27.0703 13.5352C27.0703 6.07187 20.9984 0 13.5352 0C6.07187 0 0 6.07187 0 13.5352C0 16.956 0.636234 20.3571 1.25147 23.6462C1.84611 26.825 2.46094 30.112 2.46094 33.3047C2.46094 38.0993 6.32486 42 11.0742 42C15.8236 42 19.6875 38.0993 19.6875 33.3047C19.6875 32.6936 19.6238 32.0315 19.5124 31.488C18.9121 28.554 21.073 25.1389 23.106 23.1059C25.6624 20.5495 27.0703 17.1505 27.0703 13.5352ZM17.1015 31.9814C17.1798 32.364 17.2266 32.8587 17.2266 33.3047C17.2266 36.7423 14.4666 39.5391 11.0742 39.5391C7.68182 39.5391 4.92188 36.7423 4.92188 33.3047C4.92188 29.8838 4.28564 26.4827 3.67041 23.1937C3.07576 20.0149 2.46094 16.7278 2.46094 13.5352C2.46094 7.42883 7.42883 2.46094 13.5352 2.46094C19.6415 2.46094 24.6094 7.42883 24.6094 13.5352C24.6094 16.4932 23.4575 19.2741 21.3659 21.3658C18.7828 23.9489 16.306 28.0941 17.1015 31.9814Z" fill="#383838"/>
<path d="M15.1443 5.06936C9.73677 4.079 4.92188 8.21583 4.92188 13.5352C4.92188 16.4972 5.48822 19.5071 6.08918 22.7008C6.2822 23.7262 6.48178 24.7864 6.66085 25.8428C7.02351 27.9801 8.83427 29.5313 10.9666 29.5313C13.0395 29.5313 14.839 28.056 15.2455 26.0235C15.2485 25.6452 16.7302 21.6736 13.6515 17.9183C12.0997 16.0254 9.84686 14.8951 7.41792 14.7762C7.39503 14.3586 7.38281 13.9451 7.38281 13.5352C7.38281 9.82602 10.7265 6.76224 14.7011 7.49002C19.5296 8.37431 21.3736 14.3958 17.8857 17.8866L19.6267 19.626C24.4704 14.7781 21.9837 6.32189 15.1443 5.06936ZM11.7484 19.4785C14.0062 22.2324 12.8404 25.1195 12.8323 25.5408C12.655 26.4271 11.8704 27.0704 10.9666 27.0704C10.0387 27.0704 9.24836 26.381 9.08725 25.4313C8.9044 24.3531 8.70269 23.2817 8.50639 22.2386C8.18433 20.5271 7.87229 18.8686 7.65909 17.2626C9.2541 17.4351 10.7177 18.2212 11.7484 19.4785Z" fill="#383838"/>
<path d="M42 19.6875H29.6133V22.1485H42V19.6875Z" fill="#383838"/>
<path d="M31.3925 29.6606L30.292 31.8616L40.1349 36.783L41.2353 34.582L31.3925 29.6606Z" fill="#383838"/>
<path d="M40.1371 5.05207L30.2942 9.97351L31.3947 12.1745L41.2375 7.25306L40.1371 5.05207Z" fill="#383838"/>
</svg>
