<svg width="70" height="70" viewBox="0 0 70 70" fill="none" xmlns="http://www.w3.org/2000/svg">
<path d="M35 14C23.4208 14 14 23.4208 14 35C14 46.5792 23.4208 56 35 56C46.5792 56 56 46.5792 56 35C56 23.4208 46.5792 14 35 14ZM51.5959 41.9293C49.5315 46.8559 45.3345 50.6758 40.1648 52.2282C40.2575 52.0561 40.3473 51.8821 40.4341 51.7062C40.8782 50.8074 41.3449 50.1737 42.1282 49.5417C42.7276 49.0576 43.9045 48.3078 43.7121 47.3625C43.5733 46.6792 42.7932 46.3989 42.2038 46.2319C41.2685 45.9669 40.2681 45.8982 39.3029 45.8314C38.4671 45.773 37.5992 45.8028 36.7832 45.5946C35.5621 45.2838 35.2869 44.2268 35.2096 43.1125C35.1407 42.122 35.1555 41.1037 34.6684 40.2073C34.0411 39.0537 32.5975 38.7256 31.4004 38.6155C30.3899 38.523 29.3806 38.5718 28.3755 38.4034C27.4085 38.2414 26.4928 37.9018 25.4998 37.9403C24.2129 37.9899 23.635 38.8621 23.0861 39.8708C22.8151 40.369 21.1037 44.1999 20.0981 45.0588C18.3642 42.4991 17.2735 39.4704 17.0562 36.2064C17.1983 36.1681 17.3392 36.1151 17.4822 36.0438C18.0417 35.7661 18.4336 35.2646 19.0424 35.066C19.6229 34.8769 20.3729 35.0446 20.9659 35.1028C21.5561 35.1605 22.1554 35.2216 22.7461 35.1412C23.9251 34.9802 24.5498 34.1658 24.7381 33.0288C24.8501 32.3497 24.7627 31.6668 24.783 30.9829C24.8149 29.9174 25.5142 29.5351 26.4777 29.4445C28.2978 29.2735 32.5434 29.7559 32.6293 26.9548C32.666 25.7566 31.2399 25.1382 30.3111 24.8184C28.5026 24.1962 26.5265 24.4135 24.6768 23.9813C23.6929 23.7513 22.8631 23.1376 22.1672 22.4123C25.4339 19.0837 29.9793 17.0146 35 17.0146C36.0738 17.0146 37.1249 17.1094 38.147 17.2908C37.6244 17.3879 37.1086 17.5259 36.6067 17.7285C33.9591 18.796 33.8794 21.7998 35.0366 24.0564C35.7543 25.4558 36.9167 26.6283 38.1308 27.6033C39.3061 28.5468 40.5903 29.1043 41.8935 29.8199C43.6224 30.7706 43.4137 33.2533 43.8511 34.9261C44.22 36.3368 45.1059 37.5268 46.5022 38.0152C47.3464 38.3102 48.338 38.08 49.0772 38.6682C49.7121 39.1719 49.8613 40.203 50.2241 40.896C50.5855 41.5875 51.0666 41.8785 51.5959 41.9293Z" fill="#2DB43A"/>
</svg>
