<svg width="43" height="42" viewBox="0 0 43 42" fill="none" xmlns="http://www.w3.org/2000/svg">
<path d="M29.6599 16.6752L28.7321 15.7474C27.6119 14.6271 26.1225 14.0101 24.5383 14.0101C24.5279 14.0101 14.182 14.0145 14.1749 14.0145L11.2954 16.6752H4.10046V32.6389H13.9573L18.1782 36.8601C18.9562 37.6381 19.9782 38.0272 21.0001 38.0272C22.0221 38.0272 23.044 37.6381 23.8219 36.8601L28.0429 32.6389H38.1545V16.6752H29.6599V16.6752ZM27.5845 29.3348L21.9407 34.9788C21.4221 35.4975 20.5781 35.4974 20.0594 34.9788L15.0593 29.9784H6.76094V19.3358H12.3363L15.2159 16.6752H19.4169L11.5422 24.5503L12.4828 25.4909C15.0794 28.0878 19.2894 28.0907 21.889 25.4909L23.7556 23.6243L27.5845 27.4534C28.1043 27.9733 28.1044 28.8148 27.5845 29.3348ZM35.494 29.9784H30.309C30.9287 28.5453 30.6751 26.7816 29.4657 25.5721L23.7555 19.8616L20.0077 23.6096C18.7573 24.8601 16.918 25.0864 15.4644 24.3904L22.2257 17.6287C22.8434 17.011 23.6647 16.6708 24.5383 16.6708C25.4118 16.6708 26.2331 17.011 26.8508 17.6287L28.5579 19.3358H35.494V29.9784Z" fill="#383838"/>
<path d="M19.7973 3.97302H22.4578V9.29428H19.7973V3.97302Z" fill="#383838"/>
<path d="M7.95776 9.71326L9.83872 7.83219L13.6006 11.5943L11.7196 13.4753L7.95776 9.71326Z" fill="#383838"/>
<path d="M28.649 11.5964L32.4109 7.83435L34.2919 9.71542L30.53 13.4775L28.649 11.5964Z" fill="#383838"/>
</svg>
