<svg width="71" height="31" viewBox="0 0 71 31" fill="none" xmlns="http://www.w3.org/2000/svg">
<path d="M54.8523 3C61.8914 3 67.537 8.62983 67.537 15.5C67.537 22.3702 61.8914 28 54.8523 28C53.5075 28 51.69 27.3662 49.5 26.0216C47.3698 24.7136 45.1907 22.9228 43.1961 21.0584C41.2132 19.2048 39.4789 17.3411 38.2372 15.9356C38.1039 15.7847 37.9764 15.6393 37.8552 15.5C37.9764 15.3607 38.1039 15.2153 38.2372 15.0644C39.4789 13.6589 41.2132 11.7952 43.1961 9.9416C45.1907 8.07717 47.3698 6.28635 49.5 4.97842C51.69 3.63375 53.5075 3 54.8523 3Z" stroke="#383838" stroke-width="6"/>
<path d="M16.2215 3C9.18241 3 3.53689 8.62983 3.53689 15.5C3.53689 22.3702 9.18241 28 16.2215 28C17.5663 28 19.3839 27.3662 21.5739 26.0216C23.704 24.7136 25.8832 22.9228 27.8777 21.0584C29.8607 19.2048 31.5949 17.3411 32.8367 15.9356C32.97 15.7847 33.0974 15.6393 33.2187 15.5C33.0974 15.3607 32.97 15.2153 32.8367 15.0644C31.5949 13.6589 29.8607 11.7952 27.8777 9.9416C25.8832 8.07717 23.704 6.28635 21.5739 4.97842C19.3839 3.63375 17.5663 3 16.2215 3Z" stroke="#383838" stroke-width="6"/>
</svg>
