<svg width="60" height="60" viewBox="0 0 60 60" fill="none" xmlns="http://www.w3.org/2000/svg">
<path d="M30 2C18.4204 2 9 11.2324 9 22.5811C9 26.3172 10.7096 30.3354 10.7813 30.5048C11.3335 31.7893 12.423 33.7845 13.2086 34.954L27.6072 56.3354C28.1965 57.2119 29.0686 57.7143 30 57.7143C30.9314 57.7143 31.8035 57.2119 32.3928 56.3366L46.7926 34.954C47.5795 33.7845 48.6678 31.7893 49.2199 30.5048C49.2916 30.3366 51 26.3184 51 22.5811C51 11.2324 41.5796 2 30 2ZM46.9421 29.5654C46.4492 30.7167 45.435 32.5726 44.7296 33.6211L30.3298 55.0036C30.0457 55.4261 29.9555 55.4261 29.6714 55.0036L15.2716 33.6211C14.5662 32.5726 13.5521 30.7155 13.0592 29.5642C13.0382 29.5145 11.4706 25.816 11.4706 22.5811C11.4706 12.5678 19.7829 4.42131 30 4.42131C40.2171 4.42131 48.5294 12.5678 48.5294 22.5811C48.5294 25.8208 46.9581 29.5291 46.9421 29.5654Z" fill="#2DB43A"/>
<path d="M30 11.6865C23.8692 11.6865 18.8823 16.5752 18.8823 22.5825C18.8823 28.5898 23.8692 33.4785 30 33.4785C36.1307 33.4785 41.1176 28.5898 41.1176 22.5825C41.1176 16.5752 36.1307 11.6865 30 11.6865ZM30 31.0571C25.233 31.0571 21.3529 27.2557 21.3529 22.5825C21.3529 17.9093 25.233 14.1079 30 14.1079C34.767 14.1079 38.647 17.9093 38.647 22.5825C38.647 27.2557 34.767 31.0571 30 31.0571Z" fill="#2DB43A"/>
</svg>
