<svg width="60" height="60" viewBox="0 0 60 60" fill="none" xmlns="http://www.w3.org/2000/svg">
<path d="M10.0516 23.5968C7.42839 18.3378 10.3249 14.0648 12.101 12.5857C13.5766 11.1887 15.0134 10.0749 15.8719 9.38092C18.4131 7.32659 24.0694 14.1469 26.1188 16.3656C28.1682 18.5843 26.4467 21.5425 25.545 21.789C24.6433 22.0355 20.7084 22.1999 22.02 27.2124C23.3317 32.225 28.6601 36.0049 31.2013 37.4019C33.7426 38.7988 34.7263 38.0592 37.8413 34.608C40.3334 31.847 43.0331 33.0193 44.0715 33.9506C44.9732 34.9367 47.3505 37.4512 49.6458 39.6205C52.515 42.3322 50.3016 44.4687 47.8423 47.2626L47.7897 47.3224C45.3488 50.0961 42.9467 52.8257 34.7263 49.3991C21.1183 43.4005 13.3306 30.1706 10.0516 23.5968Z" stroke="#2DB43A" stroke-width="3" stroke-linejoin="round"/>
</svg>
