<svg width="70" height="70" viewBox="0 0 70 70" fill="none" xmlns="http://www.w3.org/2000/svg">
<path d="M29.4877 21.3784C29.4877 24.5088 26.6876 27.2567 22.963 27.2567C19.2385 27.2567 16.4384 24.5088 16.4384 21.3784C16.4384 18.2479 19.2385 15.5 22.963 15.5C26.6876 15.5 29.4877 18.2479 29.4877 21.3784Z" stroke="#2DB43A" stroke-width="3"/>
<path d="M37.7777 56L26.3194 40.6757M26.3194 40.6757L24.9807 38.8853C24.5861 38.3576 23.7978 38.3491 23.392 38.8683L10 56H59.9999L44.067 34.4324M26.3194 40.6757L31.1672 34.4324M31.1672 34.4324L36.968 26.9617C37.3745 26.4383 38.1684 26.4478 38.5622 26.9808L44.067 34.4324M31.1672 34.4324L34.6913 40.6757L37.7777 34.4324L42.0987 40.6757L44.067 34.4324" stroke="#2DB43A" stroke-width="3" stroke-linejoin="round"/>
</svg>
