<svg width="42" height="42" viewBox="0 0 42 42" fill="none" xmlns="http://www.w3.org/2000/svg">
<path d="M35.5862 6.51866L21.7961 2.04698C21.6033 1.98434 21.3973 1.98434 21.2042 2.04698L7.41408 6.51866C6.9784 6.6599 6.68005 7.09334 6.68005 7.58496V23.9811C6.68005 26.1137 7.47876 28.2967 9.05399 30.4696C10.2571 32.1292 11.9216 33.7956 14.0011 35.4227C17.4946 38.156 20.9345 39.8328 21.0793 39.9028C21.2132 39.9676 21.3566 40 21.5001 40C21.6436 40 21.7871 39.9676 21.921 39.9028C22.0657 39.8328 25.5056 38.156 28.999 35.4227C31.0785 33.7956 32.743 32.1292 33.9461 30.4696C35.5213 28.2968 36.3201 26.1137 36.3201 23.9811V7.58496C36.3201 7.09334 36.0218 6.6599 35.5862 6.51866ZM34.2602 23.9811C34.2602 27.7552 30.7567 31.2941 27.8177 33.5984C25.1827 35.6641 22.5105 37.13 21.5002 37.6565C20.4899 37.13 17.8176 35.6641 15.1826 33.5984C12.2435 31.2941 8.73999 27.7552 8.73999 23.9811V8.41324L21.5001 4.27555L34.2602 8.41324V23.9811Z" fill="white"/>
</svg>
