<svg width="70" height="70" viewBox="0 0 70 70" fill="none" xmlns="http://www.w3.org/2000/svg">
<path d="M35 56C29.3907 56 24.1172 53.8156 20.1507 49.8493C16.1844 45.8828 14 40.6093 14 35C14 29.3907 16.1844 24.1172 20.1507 20.1507C24.1172 16.1844 29.3907 14 35 14C40.6093 14 45.8828 16.1844 49.8493 20.1507C53.8156 24.1172 56 29.3907 56 35C56 40.6093 53.8156 45.8828 49.8493 49.8493C45.8828 53.8156 40.6093 56 35 56ZM35 17.2812C25.2298 17.2812 17.2812 25.2298 17.2812 35C17.2812 44.7702 25.2298 52.7188 35 52.7188C44.7702 52.7188 52.7188 44.7702 52.7188 35C52.7188 25.2298 44.7702 17.2812 35 17.2812ZM42.6894 38.6248C41.9249 38.1383 40.9108 38.3636 40.4245 39.1281C40.4042 39.1599 38.3625 42.3058 34.918 42.3058C31.4735 42.3058 29.4317 39.1599 29.4115 39.1281C28.925 38.3637 27.911 38.1384 27.1466 38.6248C26.3821 39.1112 26.1568 40.1253 26.6432 40.8897C26.7653 41.0815 29.6925 45.587 34.918 45.587C40.1434 45.587 43.0706 41.0816 43.1927 40.8897C43.6792 40.1252 43.4538 39.1112 42.6894 38.6248ZM27.7812 27.5352C28.9139 27.5352 29.832 28.4533 29.832 29.5859C29.832 30.7185 28.9139 31.6367 27.7812 31.6367C26.6486 31.6367 25.7305 30.7185 25.7305 29.5859C25.7305 28.4533 26.6486 27.5352 27.7812 27.5352ZM40.0859 29.5859C40.0859 30.7185 41.0041 31.6367 42.1367 31.6367C43.2693 31.6367 44.1875 30.7185 44.1875 29.5859C44.1875 28.4533 43.2693 27.5352 42.1367 27.5352C41.0041 27.5352 40.0859 28.4533 40.0859 29.5859Z" fill="#2DB43A"/>
</svg>
