<svg width="70" height="70" viewBox="0 0 70 70" fill="none" xmlns="http://www.w3.org/2000/svg">
<path d="M28.9202 26.472C28.9202 25.0754 30.0803 23.942 31.5105 23.942C32.9404 23.942 34.1004 25.075 34.1004 26.472C34.1004 27.8697 32.9404 29.0027 31.5105 29.0027C30.0803 29.0023 28.9202 27.8697 28.9202 26.472ZM40.6653 26.472C40.6653 25.0754 41.8266 23.942 43.2565 23.942C44.6863 23.942 45.8468 25.075 45.8468 26.472C45.8468 27.8697 44.6867 29.0027 43.2565 29.0027C41.827 29.0023 40.6653 27.8697 40.6653 26.472ZM46.7896 36.8341C45.1842 40.4599 41.4248 42.8026 37.2116 42.8026C32.9086 42.8026 29.127 40.4481 27.5773 36.8039C27.3116 36.1797 27.6144 35.4633 28.254 35.2038C28.411 35.1405 28.5739 35.1104 28.7344 35.1104C29.2256 35.1104 29.6918 35.3943 29.8919 35.8655C31.0519 38.593 33.925 40.3551 37.2116 40.3551C40.4239 40.3551 43.2803 38.5917 44.4887 35.8623C44.7636 35.2417 45.5013 34.9557 46.1358 35.225C46.772 35.493 47.0644 36.2136 46.7896 36.8341Z" fill="#2DB43A"/>
<rect x="3.5" y="47.3295" width="63" height="7.17054" rx="3.58527" stroke="#2DB43A" stroke-width="3"/>
<path d="M13.2785 46.4651C12.1646 46.2532 9.81144 45.0243 9.31017 41.8036C8.68359 37.7778 5.55068 29.5142 12.4431 27.6072C19.3355 25.7002 22.4684 22.3101 26.8545 18.708C31.2406 15.1059 31.2406 12.7752 37.5064 14.6822C42.519 16.2077 48.6456 18.4255 51.0823 19.3437M61.3165 46.4651L65.2849 40.3204C65.9114 38.6253 66.5798 34.4724 64.2406 31.4212C61.3165 27.6072 60.6899 21.8863 55.2595 20.8269" stroke="#2DB43A" stroke-width="3" stroke-linecap="round"/>
</svg>
