<svg width="27" height="27" viewBox="0 0 27 27" fill="none" xmlns="http://www.w3.org/2000/svg">
<path d="M13.5869 4.01648H13.7371C15.1243 4.02154 22.1532 4.07217 24.0484 4.58183C24.6213 4.73737 25.1434 5.04056 25.5624 5.46108C25.9815 5.88161 26.2828 6.40475 26.4363 6.97823C26.6068 7.61952 26.7266 8.46838 26.8076 9.34425L26.8245 9.51976L26.8616 9.95854L26.8751 10.134C26.9848 11.6765 26.9983 13.1211 27 13.4367V13.5633C26.9983 13.8907 26.9831 15.4331 26.8616 17.0397L26.8481 17.2169L26.8329 17.3924C26.7485 18.3578 26.6237 19.3163 26.4363 20.0217C26.2833 20.5954 25.9821 21.1188 25.563 21.5394C25.1439 21.96 24.6215 22.2631 24.0484 22.4181C22.0908 22.9447 14.6501 22.9818 13.619 22.9835H13.3793C12.8579 22.9835 10.7011 22.9734 8.43971 22.8957L8.15282 22.8856L8.006 22.8788L7.71742 22.867L7.42884 22.8552C5.5556 22.7725 3.7718 22.6392 2.94993 22.4164C2.37698 22.2615 1.85479 21.9587 1.43569 21.5385C1.01659 21.1182 0.715286 20.5951 0.561973 20.0217C0.374648 19.318 0.249766 18.3578 0.165385 17.3924L0.151885 17.2152L0.138384 17.0397C0.0550963 15.8962 0.00894408 14.7503 0 13.6038L0 13.3962C0.00337521 13.0334 0.0168761 11.7795 0.108007 10.3956L0.11982 10.2218L0.124883 10.134L0.138384 9.95854L0.175511 9.51976L0.192387 9.34425C0.273392 8.46838 0.393212 7.61783 0.56366 6.97823C0.716715 6.40452 1.0179 5.88113 1.43702 5.46053C1.85614 5.03993 2.37846 4.73691 2.95162 4.58183C3.77349 4.36244 5.55728 4.22743 7.43053 4.14305L7.71742 4.13124L8.00769 4.12111L8.15282 4.11605L8.4414 4.10424C10.0475 4.05255 11.6543 4.02386 13.2612 4.01817H13.5869V4.01648ZM10.8007 9.43369V17.5646L17.8161 13.5008L10.8007 9.43369Z" fill="white"/>
</svg>
