<svg width="79" height="32" viewBox="0 0 79 32" fill="none" xmlns="http://www.w3.org/2000/svg">
<path d="M33.1873 8.60438C31.5646 8.13793 30.382 7.56636 29.6397 6.88967C28.9039 6.20642 28.5359 5.36549 28.5359 4.36688C28.5359 3.23688 28.986 2.30398 29.886 1.56816C30.7927 0.825781 31.9686 0.45459 33.414 0.45459C34.3995 0.45459 35.2765 0.645113 36.0452 1.02616C36.8204 1.40721 37.4183 1.93279 37.8387 2.6029C38.2658 3.27302 38.4793 4.00555 38.4793 4.80049H36.5773C36.5773 3.93328 36.3014 3.25331 35.7495 2.76058C35.1977 2.26127 34.4192 2.01162 33.414 2.01162C32.4811 2.01162 31.7518 2.21857 31.2263 2.63247C30.7073 3.03979 30.4477 3.60807 30.4477 4.33732C30.4477 4.92203 30.6941 5.41804 31.1868 5.82537C31.6861 6.22612 32.5304 6.59403 33.7195 6.92909C34.9152 7.26415 35.8481 7.63534 36.5182 8.04266C37.1949 8.44342 37.6942 8.91316 38.0161 9.45188C38.3446 9.9906 38.5088 10.6246 38.5088 11.3538C38.5088 12.5167 38.0555 13.4496 37.1489 14.1525C36.2423 14.8489 35.0302 15.1971 33.5125 15.1971C32.5271 15.1971 31.6073 15.0099 30.7532 14.6354C29.8992 14.2544 29.2389 13.7354 28.7725 13.0784C28.3126 12.4214 28.0826 11.6757 28.0826 10.8414H29.9846C29.9846 11.7086 30.3032 12.3951 30.9405 12.901C31.5843 13.4003 32.4417 13.65 33.5125 13.65C34.5111 13.65 35.2765 13.4463 35.8087 13.039C36.3408 12.6316 36.6069 12.0765 36.6069 11.3735C36.6069 10.6706 36.3605 10.1286 35.8678 9.74752C35.3751 9.3599 34.4816 8.97886 33.1873 8.60438Z" fill="white"/>
<path d="M43.1307 1.7554V4.33732H45.1213V5.74653H43.1307V12.359C43.1307 12.786 43.2194 13.1079 43.3967 13.3248C43.5741 13.535 43.8763 13.6401 44.3034 13.6401C44.5136 13.6401 44.8027 13.6007 45.1706 13.5218V15C44.691 15.1314 44.2245 15.1971 43.7712 15.1971C42.9566 15.1971 42.3423 14.9508 41.9284 14.458C41.5145 13.9653 41.3076 13.2656 41.3076 12.359V5.74653H39.3662V4.33732H41.3076V1.7554H43.1307Z" fill="white"/>
<path d="M46.5798 9.57013C46.5798 8.52554 46.7835 7.58607 47.1908 6.75171C47.6047 5.91735 48.1762 5.27351 48.9055 4.8202C49.6413 4.36688 50.4789 4.14023 51.4184 4.14023C52.8703 4.14023 54.043 4.64281 54.9365 5.64799C55.8366 6.65316 56.2866 7.99011 56.2866 9.65882V9.78694C56.2866 10.825 56.0862 11.7579 55.6855 12.5857C55.2913 13.4069 54.723 14.0474 53.9806 14.5073C53.2448 14.9672 52.3973 15.1971 51.4381 15.1971C49.9928 15.1971 48.8201 14.6945 47.92 13.6894C47.0265 12.6842 46.5798 11.3538 46.5798 9.69824V9.57013ZM48.4128 9.78694C48.4128 10.9695 48.6854 11.9188 49.2307 12.6349C49.7826 13.351 50.5184 13.7091 51.4381 13.7091C52.3645 13.7091 53.1003 13.3477 53.6456 12.6251C54.1909 11.8958 54.4635 10.8775 54.4635 9.57013C54.4635 8.40072 54.1843 7.45467 53.6259 6.732C53.074 6.00275 52.3382 5.63813 51.4184 5.63813C50.5184 5.63813 49.7924 5.99618 49.2405 6.71229C48.6887 7.42839 48.4128 8.45327 48.4128 9.78694Z" fill="white"/>
<path d="M60.2975 4.33732L60.3566 5.67755C61.1712 4.65267 62.2355 4.14023 63.5495 4.14023C65.8029 4.14023 66.9395 5.41147 66.9592 7.95397V15H65.1361V7.94412C65.1295 7.17546 64.9521 6.60717 64.6039 6.23926C64.2623 5.87136 63.7269 5.6874 62.9976 5.6874C62.4063 5.6874 61.8873 5.84508 61.4406 6.16043C60.9938 6.47578 60.6457 6.88967 60.396 7.40211V15H58.5729V4.33732H60.2975Z" fill="white"/>
<path d="M74.1334 15.1971C72.688 15.1971 71.512 14.7241 70.6054 13.7781C69.6988 12.8255 69.2455 11.5542 69.2455 9.96432V9.62926C69.2455 8.57153 69.4459 7.62877 69.8466 6.80098C70.2539 5.96662 70.8189 5.31621 71.5416 4.84976C72.2708 4.37674 73.0592 4.14023 73.9067 4.14023C75.2929 4.14023 76.3704 4.59682 77.139 5.51002C77.9077 6.42322 78.292 7.7306 78.292 9.43217V10.191H71.0686C71.0949 11.2421 71.4004 12.0929 71.9851 12.7433C72.5763 13.3872 73.3253 13.7091 74.2319 13.7091C74.8758 13.7091 75.421 13.5777 75.8678 13.3149C76.3145 13.0521 76.7054 12.7039 77.0405 12.2703L78.1541 13.1375C77.2606 14.5106 75.9203 15.1971 74.1334 15.1971ZM73.9067 5.63813C73.1709 5.63813 72.5533 5.90749 72.054 6.44621C71.5547 6.97836 71.246 7.72732 71.1277 8.69307H76.4689V8.55511C76.4164 7.62877 76.1667 6.91267 75.72 6.40679C75.2732 5.89435 74.6688 5.63813 73.9067 5.63813Z" fill="white"/>
<path d="M36.8828 28.2553H30.8715L29.5214 32H27.5702L33.0494 17.6517H34.705L40.194 32H38.2526L36.8828 28.2553ZM31.4431 26.6982H36.3211L33.8772 19.9872L31.4431 26.6982Z" fill="white"/>
<path d="M43.8205 32H41.9974V16.8633H43.8205V32Z" fill="white"/>
<path d="M46.2644 26.5701C46.2644 25.5255 46.4681 24.5861 46.8754 23.7517C47.2893 22.9173 47.8609 22.2735 48.5901 21.8202C49.326 21.3669 50.1636 21.1402 51.1031 21.1402C52.555 21.1402 53.7277 21.6428 54.6212 22.648C55.5212 23.6532 55.9713 24.9901 55.9713 26.6588V26.7869C55.9713 27.825 55.7709 28.7579 55.3701 29.5857C54.9759 30.4069 54.4077 31.0474 53.6653 31.5073C52.9295 31.9672 52.082 32.1971 51.1228 32.1971C49.6774 32.1971 48.5047 31.6945 47.6047 30.6894C46.7112 29.6842 46.2644 28.3538 46.2644 26.6982V26.5701ZM48.0974 26.7869C48.0974 27.9695 48.3701 28.9188 48.9153 29.6349C49.4672 30.351 50.203 30.7091 51.1228 30.7091C52.0491 30.7091 52.7849 30.3477 53.3302 29.6251C53.8755 28.8958 54.1482 27.8775 54.1482 26.5701C54.1482 25.4007 53.8689 24.4547 53.3105 23.732C52.7587 23.0028 52.0228 22.6381 51.1031 22.6381C50.203 22.6381 49.4771 22.9962 48.9252 23.7123C48.3733 24.4284 48.0974 25.4533 48.0974 26.7869Z" fill="white"/>
<path d="M59.9821 21.3373L60.0412 22.6776C60.8559 21.6527 61.9202 21.1402 63.2341 21.1402C65.4876 21.1402 66.6241 22.4115 66.6438 24.954V32H64.8207V24.9441C64.8142 24.1755 64.6368 23.6072 64.2886 23.2393C63.947 22.8714 63.4115 22.6874 62.6823 22.6874C62.091 22.6874 61.572 22.8451 61.1252 23.1604C60.6785 23.4758 60.3303 23.8897 60.0807 24.4021V32H58.2575V21.3373H59.9821Z" fill="white"/>
<path d="M73.818 32.1971C72.3727 32.1971 71.1967 31.7241 70.2901 30.7781C69.3834 29.8255 68.9301 28.5542 68.9301 26.9643V26.6293C68.9301 25.5715 69.1305 24.6288 69.5313 23.801C69.9386 22.9666 70.5036 22.3162 71.2263 21.8498C71.9555 21.3767 72.7439 21.1402 73.5914 21.1402C74.9776 21.1402 76.055 21.5968 76.8237 22.51C77.5924 23.4232 77.9767 24.7306 77.9767 26.4322V27.191H70.7532C70.7795 28.2421 71.085 29.0929 71.6697 29.7433C72.261 30.3872 73.0099 30.7091 73.9166 30.7091C74.5604 30.7091 75.1057 30.5777 75.5524 30.3149C75.9992 30.0521 76.3901 29.7039 76.7251 29.2703L77.8387 30.1375C76.9452 31.5106 75.605 32.1971 73.818 32.1971ZM73.5914 22.6381C72.8556 22.6381 72.238 22.9075 71.7387 23.4462C71.2394 23.9784 70.9306 24.7273 70.8124 25.6931H76.1536V25.5551C76.101 24.6288 75.8514 23.9127 75.4046 23.4068C74.9579 22.8944 74.3535 22.6381 73.5914 22.6381Z" fill="white"/>
<path d="M0 22.456L14.658 0.998047M0 22.456L0.505449 14.9707L14.658 0.998047M0 22.456L3.03269 29.4423L15.1635 31.4384M0 22.456L11.1199 26.4482M14.658 0.998047L19.7125 12.4756M14.658 0.998047L21.7343 2.99414L26.2833 15.4697M15.1635 31.4384L11.1199 26.4482M15.1635 31.4384L25.2724 25.9492M15.1635 31.4384L22.2397 30.4404L25.2724 25.9492M11.1199 26.4482L17.6907 17.9648M17.6907 17.9648L19.7125 12.4756M17.6907 17.9648L25.2724 25.9492M19.7125 12.4756L26.2833 15.4697M25.2724 25.9492L26.2833 15.4697" stroke="white" stroke-width="1.5"/>
</svg>
